<?xml version="1.0" encoding="utf-8"?>
<!-- Generator: Adobe Illustrator 25.1.0, SVG Export Plug-In . SVG Version: 6.00 Build 0)  -->
<svg version="1.1" id="Layer_2_1_" xmlns="http://www.w3.org/2000/svg" xmlns:xlink="http://www.w3.org/1999/xlink" x="0px" y="0px"
	 viewBox="0 0 400 400" style="enable-background:new 0 0 400 400;" xml:space="preserve">
<path d="M376.2,89.6c-15.5-14.3-35.5-21.4-60.3-21.4h-95.6l-86.9,104l-86.9-104h-46v263.6h51.1V146.7h1.5l76.5,92.8h7.2l76.5-92.8
	h1.5v141.1l-1.2,44h52.3V221.3h48c25.6,0,46.3-7,61.9-21.1c15.7-14.1,23.5-32.5,23.5-55.3C399.4,122.3,391.7,103.9,376.2,89.6z
	 M335.1,172.1c-7.6,6.2-18.3,9.4-31.9,9.3H266V108h33.7c31.3,0,47,12.1,47,36.4C346.6,156.6,342.8,165.8,335.1,172.1z"/>
</svg>
