<svg id="Layer_1" data-name="Layer 1" xmlns="http://www.w3.org/2000/svg" viewBox="0 0 1079.83 1079.83"><defs><style>.cls-1{fill:#070707;}.cls-2{fill:none;stroke:#fff;stroke-miterlimit:10;stroke-width:13px;}.cls-3{fill:#fff;}</style></defs><title>mp_logo_black</title><rect class="cls-1" width="1079.83" height="1079.83"/><polyline class="cls-2" points="332.83 878.36 181.11 878.36 181.11 678.41"/><path class="cls-3" d="M879.64,698q-19.25-17.84-50-17.83H750.32L678.2,766.75l-72.11-86.57H567.91V899.67h42.42V745.54h1.26l63.47,77.3h6l63.48-77.3h1.25V863l-1,36.65h43.43V807.6H828q31.89,0,51.38-17.6t19.48-46Q898.89,715.85,879.64,698Zm-34.09,68.66q-9.51,7.79-26.48,7.78H788.19V713.33h27.9q39,0,39,30.32Q855.05,758.91,845.55,766.67Z" transform="translate(-0.17 -0.32)"/><polyline class="cls-2" points="728.84 180.48 880.56 180.48 880.56 380.42"/><polyline class="cls-2" points="332.83 180.48 181.11 180.48 181.11 380.42"/></svg>