<svg id="Layer_1" data-name="Layer 1" xmlns="http://www.w3.org/2000/svg" viewBox="0 0 1080 331.22"><title>mp_ordbild</title><path d="M11,24.3H30.52L54.93,92.35c3.06,8.7,6,17.69,9,26.53h.77c3.07-8.84,5.74-17.83,8.81-26.53l24.12-68H117.2V151.65H102.13V81.53c0-11.09,1.25-26.39,2.06-37.66h-.77L93.31,72.92l-24,65.87H58.59L34.48,72.92,24.39,43.87h-.77c.81,11.27,2.06,26.57,2.06,37.66v70.12H11Z" transform="translate(-11 -21.97)"/><path d="M146.85,24.3h73.4V38h-57.2v39.9H211.3V91.64H163.05v46.29h59.14v13.72H146.85Z" transform="translate(-11 -21.97)"/><path d="M243.38,24.3h16.2V137.93h55.58v13.72H243.38Z" transform="translate(-11 -21.97)"/><path d="M335,24.3h16.2V137.93h55.58v13.72H335Z" transform="translate(-11 -21.97)"/><path d="M411.64,87.52c0-40.79,22.45-65.55,54.43-65.55S520.5,46.8,520.5,87.52,498.06,154,466.07,154,411.64,128.3,411.64,87.52Zm92.12,0c0-31.73-14.95-51.3-37.69-51.3s-37.69,19.57-37.69,51.3,15,52.21,37.69,52.21S503.76,119.24,503.76,87.52Z" transform="translate(-11 -21.97)"/><path d="M530.17,24.3h16.74l13.36,69.33c2.46,13.69,5,27.37,7.46,41.06h.77c2.82-13.69,5.89-27.44,9-41.06L595.12,24.3h14.7l17.67,69.33c3.06,13.47,6.13,27.3,9.19,41.06h.78c2.46-13.76,4.75-27.52,7.21-41.06L658,24.3h15.64L647.31,151.65H627.82L608.56,75.1c-2.19-9.94-4.23-19.2-6.13-29h-.78c-2,9.8-4.19,19.06-6.37,29L576.4,151.65H557.2Z" transform="translate(-11 -21.97)"/><path d="M725.66,38H687.14V24.3h93.25V38H741.87V151.65H725.66Z" transform="translate(-11 -21.97)"/><path d="M799.14,24.3h73.4V38h-57.2v39.9h48.25V91.64H815.34v46.29h59.14v13.72H799.14Z" transform="translate(-11 -21.97)"/><path d="M886.26,88.09C886.26,47,910.46,22,942.77,22a47.44,47.44,0,0,1,35,15.71l-8.88,10.55c-6.7-7.15-15.11-12-25.86-12C919,36.22,903,55.93,903,87.66c0,32,15.28,52.07,39.43,52.07,12.15,0,21.39-5.29,29.52-14.3l8.88,10.17C970.76,147.28,958.29,154,941.75,154,910,154,886.26,129.45,886.26,88.09Z" transform="translate(-11 -21.97)"/><path d="M999.36,24.3h16.21V77.63h59.22V24.3H1091V151.65h-16.21V91.78h-59.22v59.87H999.36Z" transform="translate(-11 -21.97)"/><path d="M11,223.52H47.37c28.53,0,47.79,9.6,47.79,37.49,0,26.81-19.15,39.34-47,39.34H27.21v50.51H11ZM46.1,287.2C68.37,287.2,79,279.14,79,261c0-18.36-11.29-24.35-33.66-24.35H27.21V287.2Z" transform="translate(-11 -21.97)"/><path d="M114.89,223.52h16.2v53.33h59.23V223.52h16.2V350.86h-16.2V291H131.09v59.87h-16.2Z" transform="translate(-11 -21.97)"/><path d="M230.28,286.73c0-40.79,22.44-65.54,54.43-65.54s54.42,24.82,54.42,65.54-22.44,66.46-54.42,66.46S230.28,327.52,230.28,286.73Zm92.12,0c0-31.72-15-51.29-37.69-51.29S247,255,247,286.73,262,339,284.71,339,322.4,318.46,322.4,286.73Z" transform="translate(-11 -21.97)"/><path d="M382.3,237.23H343.77V223.52H437v13.71H398.5V350.86H382.3Z" transform="translate(-11 -21.97)"/><path d="M441.54,286.73c0-40.79,22.45-65.54,54.43-65.54S550.4,246,550.4,286.73,528,353.19,496,353.19,441.54,327.52,441.54,286.73Zm92.12,0c0-31.72-14.95-51.29-37.69-51.29S458.28,255,458.28,286.73,473.24,339,496,339,533.66,318.46,533.66,286.73Z" transform="translate(-11 -21.97)"/><path d="M561.93,334.29l9.69-11.12c9.17,9.51,21.9,15.78,35.14,15.78,16.71,0,26.62-8.33,26.62-20.7,0-13-9.22-17.15-21.25-22.4l-18.29-8.07C582,282.71,568.06,273.72,568.06,255c0-19.46,17-33.8,40.08-33.8A52.53,52.53,0,0,1,645.64,237l-8.59,10.41c-7.8-7.37-17.14-11.94-28.91-11.94-14.28,0-23.74,7.2-23.74,18.59,0,12.27,11.11,16.85,21.08,21.07L623.63,283c14.74,6.33,26.24,15.11,26.24,34,0,20.12-16.62,36.19-43.4,36.19A61,61,0,0,1,561.93,334.29Z" transform="translate(-11 -21.97)"/></svg>